<?xml version="1.0" encoding="utf-8"?>
<!-- Generator: Adobe Illustrator 23.0.1, SVG Export Plug-In . SVG Version: 6.00 Build 0)  -->
<svg version="1.1" id="Layer_1" xmlns="http://www.w3.org/2000/svg" xmlns:xlink="http://www.w3.org/1999/xlink" x="0px" y="0px"
	 viewBox="0 0 40 40" style="enable-background:new 0 0 40 40;" xml:space="preserve">
<style type="text/css">
	.st0{fill:#8CC577;}
	.st1{fill:#573C45;}
	.st2{font-family:'GalaW01-Triline';}
	.st3{font-size:5px;}
	.st4{fill:#CA8463;}
	.st5{fill:#A66848;}
	.st6{fill:#B3B3B3;}
	.st7{fill:#CFD0D0;}
	.st8{fill:#539341;}
	.st9{fill:#6AAC52;}
	.st10{fill:#6A6868;stroke:#FFFFFF;stroke-width:0.1;stroke-miterlimit:10;}
	.st11{font-family:'HarlowSolid';}
	.st12{font-size:2.5362px;}
	.st13{fill:none;stroke:#FFFFFF;stroke-width:2;stroke-miterlimit:10;}
</style>
<g>
	<g>
		<g>
			<path class="st0" d="M18.7,37.1c0.09-0.01,0.19-0.01,0.2-0.13c0.01,0.04,0.03,0.12,0.04,0.16l0.02-0.1
				c0.02,0.02,0.07,0.05,0.09,0.07c0.14-0.08,0.32-0.05,0.47-0.09c-0.01-0.02-0.02-0.06-0.02-0.08c0.09,0,0.19,0,0.29-0.01
				c0.1-0.06,0.22-0.03,0.33-0.03c0-0.03-0.01-0.1-0.02-0.13c0.03,0.01,0.08,0.04,0.1,0.05c0,0.04,0,0.12,0,0.15
				c0.04-0.09,0.07-0.18,0.11-0.27c0,0.05,0.01,0.15,0.02,0.2c0.02,0,0.06,0.01,0.08,0.01c0-0.07,0-0.13-0.01-0.2
				c0.02,0.01,0.07,0.02,0.1,0.03c0-0.03,0.01-0.09,0.01-0.12c0.04,0.04,0.08,0.09,0.12,0.13c0-0.03-0.01-0.08-0.02-0.11
				c0.03,0,0.08,0,0.11,0c0,0.01-0.01,0.04-0.02,0.06l0.09,0c0-0.03,0.01-0.09,0.01-0.12c0.01,0.04,0.02,0.11,0.03,0.14
				c0.2,0.01,0.39,0.01,0.59,0l0,0.04c0.11,0,0.23,0,0.34-0.01c0,0.03,0,0.1,0,0.14c-0.12,0-0.25-0.01-0.37,0.02
				c-0.22,0.02-0.44,0.02-0.65,0.01c0,0.02,0,0.06,0,0.09c0.27,0.06,0.54,0.04,0.81,0.04c0.01-0.04,0.02-0.12,0.02-0.15
				c0.01,0.03,0.02,0.09,0.02,0.12l0.09,0c0-0.02-0.01-0.07-0.01-0.09l0.04,0c0,0.02-0.01,0.06-0.01,0.08
				c0.03,0,0.08,0.01,0.11,0.01c0-0.01-0.01-0.04-0.02-0.06c0.12,0,0.25,0,0.37-0.03c0.27-0.02,0.53-0.08,0.8-0.1
				c0-0.01-0.01-0.04-0.02-0.06c0.21-0.02,0.41-0.07,0.61-0.11l-0.02-0.04c0.2-0.03,0.39-0.08,0.58-0.15
				c-0.08-0.01-0.16-0.01-0.24-0.02c0,0.02,0.01,0.05,0.02,0.07c-0.26,0.03-0.52,0.09-0.78,0.1c0,0.01,0.01,0.03,0.02,0.04
				c-0.06,0.01-0.12,0.02-0.19,0.04c0-0.02,0-0.07,0-0.1c-0.01,0-0.03,0.01-0.05,0.01c0,0.02,0,0.07,0,0.09
				c-0.11,0.01-0.22,0.01-0.33,0.02c-0.07,0.02-0.14,0.03-0.2,0.04l0-0.09c0.06,0,0.12,0,0.19,0c0-0.02-0.01-0.06-0.01-0.09
				c0.12,0,0.25,0,0.37-0.02c0.11-0.01,0.17-0.07,0.19-0.18c0,0.05,0.01,0.14,0.01,0.19c0.04-0.08,0.13-0.07,0.21-0.07
				c-0.01-0.02-0.02-0.06-0.02-0.07c0.12-0.02,0.25-0.04,0.38-0.05c-0.01-0.02-0.03-0.06-0.04-0.08c0.14,0,0.28,0,0.42,0
				c0.03-0.06,0.06-0.13,0.09-0.19c0.02,0.02,0.06,0.05,0.08,0.07c0.05-0.02,0.1-0.04,0.16-0.06l0-0.03c0.09,0,0.17,0.01,0.26,0.01
				c-0.05,0.02-0.15,0.06-0.2,0.08c-0.02,0-0.07-0.01-0.1-0.01c-0.01,0.02-0.03,0.07-0.04,0.1c-0.06,0-0.13-0.01-0.19-0.01
				c0,0.01,0,0.04,0.01,0.06c0.15-0.01,0.3-0.05,0.46-0.05c0.17-0.01,0.35,0.01,0.52-0.03c0.02-0.08,0.11-0.07,0.17-0.09
				c0.12-0.02,0.25-0.05,0.37-0.08c0-0.01-0.01-0.03-0.01-0.05c0.17-0.04,0.35-0.08,0.52-0.13l-0.02-0.05
				c0.15-0.05,0.3-0.1,0.46-0.08c-0.01-0.03-0.02-0.08-0.03-0.1c0.02,0,0.05,0.01,0.06,0.01c0,0.02-0.01,0.07-0.02,0.09l0.07-0.01
				l-0.02,0.07c0.09-0.02,0.17-0.05,0.26-0.07c0.02-0.04,0.04-0.09,0.06-0.13c0.02,0.01,0.06,0.02,0.08,0.03l-0.01-0.04
				c0.03-0.04,0.07-0.09,0.1-0.14c0.05,0,0.09,0,0.14,0c0.07-0.08,0.14-0.19,0.26-0.19c0-0.02,0-0.05,0-0.07c0.02,0,0.07,0,0.09,0
				c-0.01-0.02-0.02-0.07-0.02-0.09c0.03,0,0.1,0,0.13,0c0.01-0.04,0.02-0.08,0.03-0.12c-0.02,0-0.05,0-0.07,0
				c0-0.04,0.01-0.11,0.01-0.14c0.06-0.01,0.12-0.02,0.19-0.03c0.04-0.04,0.08-0.08,0.12-0.13c0.06-0.04,0.13-0.08,0.19-0.12
				c0.08-0.1,0.24-0.12,0.29-0.24c0.03,0,0.08,0,0.1-0.01c0.05-0.03,0.1-0.06,0.16-0.1c0.07-0.1,0.21-0.11,0.27-0.2
				c0.03-0.05,0.09-0.04,0.14-0.05c0.02-0.04,0.05-0.09,0.07-0.13c0.09-0.02,0.18-0.04,0.26-0.07c0-0.02-0.01-0.05-0.01-0.07
				c0.1-0.04,0.19-0.09,0.25-0.18c0.14-0.08,0.28-0.17,0.41-0.26c0.01,0.16-0.13,0.23-0.25,0.28c0.01,0.01,0.03,0.04,0.04,0.05
				c-0.06,0.04-0.11,0.07-0.16,0.11c-0.03-0.01-0.09-0.02-0.12-0.02c0.02,0.02,0.05,0.07,0.06,0.1c-0.06,0.03-0.11,0.05-0.17,0.08
				c0.01,0.05,0.03,0.11,0.05,0.16c0-0.03,0.01-0.09,0.01-0.12c0.06-0.04,0.13-0.07,0.19-0.1c0.02-0.05,0.05-0.11,0.07-0.16
				c0.02,0.01,0.07,0.02,0.09,0.03l-0.02-0.08c0.02,0.01,0.07,0.03,0.09,0.04c0-0.11,0.08-0.21,0.2-0.19
				c0.01-0.05,0.02-0.09,0.03-0.14c-0.03,0.02-0.1,0.06-0.13,0.08c0.03-0.08,0.07-0.16,0.13-0.23c0.03,0,0.08,0,0.11,0
				c0.02-0.04,0.04-0.07,0.06-0.11c0.09-0.02,0.16-0.08,0.22-0.14c0.04-0.02,0.08-0.04,0.12-0.06c0.04-0.02,0.08-0.05,0.12-0.07
				c0.06-0.1,0.2-0.12,0.26-0.23c0.08-0.04,0.16-0.08,0.24-0.12c0.08-0.11,0.24-0.09,0.35-0.16c0.04-0.04,0.08-0.07,0.13-0.11
				c0.06-0.03,0.16-0.04,0.14-0.13c0.08-0.02,0.15-0.06,0.22-0.1l-0.02-0.02c0.08-0.03,0.17-0.06,0.2-0.15
				c0.07-0.04,0.15-0.08,0.22-0.12c0.12-0.09,0.21-0.25,0.37-0.29c0.18-0.21,0.41-0.38,0.57-0.6c0.01-0.03,0.04-0.08,0.05-0.11
				c0.02,0,0.07,0.01,0.1,0.02c0.02-0.06,0.04-0.12,0.05-0.18c0.05-0.01,0.1-0.02,0.16-0.03c-0.03,0-0.09-0.01-0.12-0.01l0-0.11
				c0.02,0.01,0.06,0.02,0.07,0.03c0.02-0.07,0.05-0.13,0.09-0.19c0-0.03,0.01-0.09,0.02-0.12c0.02,0,0.05,0.01,0.07,0.01
				c0.02-0.1,0.07-0.2,0.17-0.24c0-0.02,0.01-0.05,0.01-0.07c0.05-0.04,0.09-0.09,0.11-0.15c0.05,0,0.09,0,0.14,0
				c0.01-0.06,0.02-0.13,0.03-0.19c0.06,0.03,0.1,0.07,0.13,0.13c-0.01-0.07-0.02-0.13-0.03-0.2c0.04,0,0.11,0.01,0.14,0.02
				c0-0.03,0-0.08,0-0.11c0.11-0.12,0.2-0.25,0.29-0.38c0.02-0.01,0.07-0.02,0.1-0.03c0.04-0.09,0.08-0.19,0.11-0.28
				c0.02,0,0.06,0,0.08,0c0.02-0.07,0.04-0.13,0.06-0.2c0-0.03-0.01-0.09-0.01-0.11l0.07,0.01c-0.01-0.04-0.02-0.11-0.03-0.15
				c0.02,0,0.06,0.01,0.08,0.02c0.02-0.01,0.05-0.03,0.06-0.04c0-0.03,0-0.1,0-0.13c0.05-0.02,0.1-0.04,0.16-0.05
				c-0.04-0.01-0.11-0.03-0.15-0.04c0.15-0.02,0.09-0.17,0.16-0.25l0-0.02c0.02-0.04,0.03-0.09,0.05-0.13
				c0.11,0.01,0.14-0.09,0.12-0.18c0.02-0.04,0.03-0.08,0.05-0.12c0.01-0.06,0.03-0.12,0.04-0.19c0.02,0.01,0.05,0.02,0.07,0.03
				c0-0.12,0.03-0.23,0.05-0.35c0.02,0,0.05,0,0.06,0c0.03-0.17,0.09-0.34,0.12-0.52c0.01,0,0.04,0.01,0.05,0.01
				c0.02-0.11,0.04-0.22,0.07-0.33c0-0.07,0-0.14,0-0.21c0.04,0,0.08,0.01,0.11,0.01c-0.05-0.03-0.09-0.07-0.13-0.12
				c0.03-0.01,0.1-0.02,0.14-0.03c-0.02,0-0.07-0.01-0.09-0.02c0-0.03,0-0.08-0.01-0.11c0.03,0,0.08,0,0.1,0
				c-0.01-0.08-0.01-0.17,0.04-0.24c0-0.03,0-0.08,0-0.1c0.05-0.03,0.11-0.05,0.16-0.08c0.08-0.45,0.06-0.91,0.06-1.36
				c0.01-0.45-0.11-0.89-0.09-1.33c-0.02,0-0.05,0.01-0.07,0.01l0-0.08c0.03-0.01,0.08-0.02,0.11-0.03
				c-0.03-0.01-0.09-0.03-0.12-0.04c0-0.1,0-0.19,0-0.29c-0.01,0-0.04,0.01-0.06,0.02c-0.01-0.28-0.06-0.55-0.09-0.82
				C36.55,20.99,36.52,21,36.5,21c0-0.22-0.08-0.43-0.1-0.65c-0.01,0-0.04,0.01-0.06,0.01c-0.03-0.29-0.04-0.58-0.08-0.87
				c-0.03-0.15-0.03-0.29-0.03-0.44c-0.02,0.01-0.05,0.02-0.07,0.02c0-0.08,0-0.16,0-0.24c-0.03,0-0.08,0.01-0.1,0.01
				c0-0.01,0-0.03,0-0.04c0.03,0,0.08,0.01,0.11,0.01c-0.01-0.03-0.04-0.08-0.05-0.11l-0.03,0.02c-0.02-0.16-0.07-0.32-0.11-0.47
				c-0.06-0.01-0.12-0.03-0.17-0.05c0.02,0.08,0.04,0.16,0.06,0.24c-0.08-0.04-0.16-0.09-0.23-0.13c0.03-0.01,0.09-0.02,0.12-0.02
				c0-0.02-0.01-0.06-0.01-0.08c-0.02,0.01-0.06,0.02-0.08,0.02c-0.03-0.23-0.06-0.46-0.14-0.67c-0.05-0.12-0.05-0.26-0.05-0.39
				l-0.04,0c0-0.13,0-0.26-0.01-0.39c0.02,0.01,0.07,0.02,0.09,0.03c-0.03-0.03-0.06-0.07-0.08-0.1c0.01-0.2-0.01-0.4-0.01-0.6
				c-0.02,0.01-0.06,0.02-0.09,0.02c0-0.05,0-0.09,0-0.14c0.03,0,0.09-0.01,0.12-0.01c0.01,0.07,0.03,0.13,0.05,0.2
				c0,0.07,0,0.14,0.01,0.21c0.02-0.01,0.06-0.03,0.08-0.03c0,0.15,0.01,0.31,0.05,0.45c0.04-0.34-0.07-0.66-0.09-1
				c-0.02,0.01-0.05,0.02-0.07,0.03c0-0.2-0.07-0.39-0.09-0.58c-0.02,0.01-0.05,0.01-0.07,0.02c0-0.12-0.01-0.24-0.04-0.36
				c-0.01-0.19-0.06-0.38-0.06-0.57c-0.03,0-0.09,0.01-0.12,0.02c0-0.14-0.03-0.28-0.09-0.41c0-0.03,0-0.08,0-0.11
				c-0.02,0.01-0.06,0.02-0.08,0.02c-0.01-0.14-0.06-0.27-0.1-0.41c-0.02,0.01-0.06,0.02-0.07,0.03c-0.01-0.09-0.03-0.19-0.05-0.28
				l-0.06,0.03c0.01-0.04,0.02-0.08,0.03-0.12c-0.04,0.01-0.09,0.02-0.13,0.03c0.02,0.02,0.06,0.05,0.08,0.07
				c0,0.08-0.01,0.16-0.01,0.25c0.03,0.01,0.08,0.04,0.1,0.05c-0.01,0.09-0.02,0.18-0.07,0.25c-0.05-0.09-0.1-0.19-0.12-0.3
				c-0.04,0.01-0.07,0.01-0.11,0.01c-0.01-0.07-0.02-0.13-0.04-0.2c-0.02-0.04-0.03-0.09-0.05-0.13c-0.04-0.03-0.09-0.07-0.13-0.11
				c0.06-0.09-0.01-0.19-0.02-0.28c-0.04-0.02-0.07-0.03-0.11-0.05c0.03-0.01,0.09-0.03,0.12-0.04c-0.03,0-0.09,0-0.12,0
				c0-0.03-0.01-0.09-0.01-0.12c-0.02-0.05-0.04-0.1-0.06-0.15c-0.03-0.04-0.06-0.09-0.08-0.13c-0.02-0.04-0.04-0.08-0.06-0.12
				c0-0.05-0.01-0.1-0.01-0.15c-0.04,0-0.11,0.01-0.14,0.01c0.01-0.02,0.02-0.06,0.02-0.08c-0.05-0.09-0.09-0.18-0.17-0.25
				c-0.05-0.09-0.08-0.19-0.17-0.25c-0.06-0.09-0.07-0.28-0.22-0.24c-0.01-0.06-0.01-0.11-0.02-0.17c-0.06,0.01-0.12,0.02-0.17,0.02
				L32.96,11c0.03,0,0.09,0.01,0.12,0.01c0-0.03-0.01-0.08-0.01-0.1c-0.06,0.01-0.12,0.01-0.18,0.02l0.01-0.07
				c-0.02,0.01-0.06,0.02-0.08,0.02c-0.02-0.06-0.04-0.11-0.06-0.17c-0.03,0-0.08,0-0.1,0c-0.03-0.11-0.04-0.24-0.13-0.32
				c-0.05-0.1-0.09-0.2-0.12-0.31c-0.01,0-0.03,0-0.04-0.01c-0.03-0.03-0.06-0.07-0.09-0.1C32.17,9.8,32.06,9.63,32,9.45
				c-0.04-0.03-0.09-0.07-0.13-0.1c0-0.03,0-0.1,0-0.13c-0.03,0-0.08,0.01-0.11,0.01c-0.01-0.08-0.02-0.18-0.13-0.19
				c-0.02-0.07-0.04-0.16-0.14-0.17c-0.01-0.09-0.01-0.19-0.01-0.28c-0.02,0-0.06,0.01-0.08,0.01l0-0.04
				c-0.02-0.03-0.05-0.06-0.07-0.09c0.08,0,0.17,0,0.26-0.01c-0.01,0.02-0.02,0.07-0.03,0.09c0.03,0,0.09,0,0.12,0
				c0,0.11,0.07,0.18,0.16,0.23c0.02,0.05,0.03,0.09,0.05,0.14c-0.05,0.01-0.1,0.01-0.15,0.02c0.07,0,0.13,0,0.2,0
				c0,0.03,0,0.08-0.01,0.11c0.02,0,0.06,0.01,0.08,0.02c0.03,0.1,0.07,0.2,0.1,0.3c0.02,0,0.05-0.01,0.07-0.01
				c0.02,0.09,0.04,0.17,0.06,0.26c0.03,0,0.1,0,0.13,0c0,0.02-0.01,0.06-0.01,0.08l0.03,0c0,0.13,0.1,0.13,0.2,0.13
				c0,0.01,0,0.03,0,0.04c-0.04,0-0.13,0-0.17,0c0.06,0.05,0.13,0.11,0.19,0.16c0,0.03,0.01,0.08,0.01,0.11
				c0.09,0.03,0.15,0.1,0.2,0.17c0-0.08,0.01-0.16,0.02-0.24c-0.02,0-0.07,0-0.1,0c0-0.06,0-0.13-0.01-0.19
				c-0.02,0.01-0.07,0.02-0.09,0.03c0-0.03,0.01-0.08,0.01-0.11c-0.07-0.04-0.09-0.12-0.1-0.2c-0.02,0-0.07,0-0.09,0
				c-0.03-0.1-0.07-0.2-0.11-0.31c-0.04-0.02-0.09-0.05-0.13-0.07c-0.03-0.09-0.06-0.17-0.09-0.26c-0.02,0-0.05,0.01-0.06,0.02
				c-0.01-0.03-0.02-0.09-0.03-0.12C32.04,8.8,32,8.74,31.94,8.7c-0.04-0.07-0.08-0.15-0.12-0.22c-0.1-0.06-0.12-0.2-0.22-0.26
				c-0.06-0.07-0.12-0.14-0.18-0.2c-0.09-0.13-0.19-0.25-0.28-0.38c-0.1-0.07-0.13-0.19-0.22-0.26c-0.05-0.07-0.11-0.14-0.18-0.2
				c-0.06-0.05-0.11-0.11-0.17-0.18c-0.06-0.06-0.11-0.13-0.15-0.2c-0.02-0.01-0.06-0.02-0.09-0.02c-0.03-0.05-0.05-0.1-0.08-0.16
				c-0.03,0-0.08,0-0.1,0c0-0.02-0.01-0.06-0.02-0.08c-0.19-0.06-0.29-0.22-0.43-0.34c-0.15-0.08-0.23-0.26-0.42-0.27
				c-0.01-0.02-0.03-0.05-0.04-0.07c-0.16-0.1-0.31-0.19-0.45-0.31c-0.07-0.08-0.17-0.11-0.28-0.11c0-0.03-0.01-0.08-0.01-0.1
				c-0.04-0.01-0.08-0.01-0.12-0.02c-0.1-0.08-0.2-0.15-0.3-0.24c-0.05-0.03-0.1-0.06-0.15-0.1c-0.03,0-0.09,0-0.12-0.01
				c-0.04-0.13-0.19-0.15-0.29-0.21c0-0.01,0.01-0.04,0.01-0.05c-0.03-0.02-0.09-0.04-0.11-0.06c-0.02,0-0.07-0.01-0.1-0.01
				c0-0.03,0-0.08,0-0.11c-0.08-0.02-0.17-0.05-0.25-0.07c0-0.02-0.01-0.06-0.02-0.09c-0.09-0.03-0.17-0.07-0.26-0.11l0.02-0.04
				c-0.05-0.02-0.09-0.05-0.14-0.07c-0.06-0.02-0.12-0.04-0.15-0.09c-0.08-0.03-0.15-0.05-0.23-0.09c-0.02-0.01-0.06-0.02-0.09-0.03
				c-0.07-0.14-0.29-0.09-0.37-0.23c-0.09-0.02-0.19-0.04-0.28-0.07c-0.01-0.02-0.04-0.05-0.06-0.07c-0.16-0.06-0.32-0.08-0.48-0.12
				c0-0.01,0-0.03,0-0.04c-0.25-0.02-0.49-0.11-0.74-0.12c0-0.01,0.01-0.04,0.02-0.05c-0.28-0.04-0.57-0.08-0.85-0.12
				c-0.04,0-0.07-0.03-0.08-0.07c-0.25-0.03-0.49-0.09-0.75-0.09c0-0.01,0.01-0.04,0.01-0.06c-0.58-0.04-1.16-0.08-1.74-0.03
				c-0.22,0.02-0.44,0.02-0.67,0.03C20.23,2.94,20.21,2.98,20.2,3c-0.26-0.01-0.53,0-0.79,0.02c-0.18,0.05-0.36,0.08-0.54,0.07
				c0.01,0.02,0.02,0.06,0.02,0.08c-0.2,0-0.39,0.02-0.59,0.02c-0.23,0.06-0.48-0.01-0.72,0.06c-0.06,0-0.11,0.01-0.16,0.01
				c0,0.02,0.01,0.06,0.02,0.07c-0.2,0-0.38,0.09-0.58,0.1c-0.02,0.03-0.05,0.08-0.06,0.1c-0.01-0.05-0.03-0.09-0.04-0.14
				c0,0.03-0.01,0.08-0.01,0.11c-0.09,0.02-0.18,0.03-0.27,0.06c0.01,0.02,0.02,0.05,0.03,0.07c-0.09,0.04-0.17,0.09-0.26,0.14
				c-0.12,0.04-0.26,0.06-0.38,0.09c0-0.04-0.01-0.12-0.01-0.16c-0.01,0.06-0.01,0.11-0.01,0.17c-0.04,0-0.12-0.01-0.17-0.01
				c0,0.02,0.01,0.06,0.01,0.08c-0.05,0-0.1,0-0.16,0.01c-0.11,0.04-0.23,0.06-0.34,0.08c0.01,0.02,0.01,0.06,0.02,0.08
				c-0.01,0-0.03,0-0.04,0c0-0.02,0.01-0.08,0.02-0.1c-0.09,0.02-0.23-0.03-0.25,0.1c-0.02-0.01-0.05-0.03-0.07-0.03l0,0.07
				c-0.04-0.01-0.11-0.02-0.14-0.02c0,0.01,0.01,0.04,0.01,0.06c-0.09,0-0.19,0-0.28-0.01c0.01,0.03,0.01,0.08,0.02,0.1
				c-0.01,0-0.04,0-0.05,0c0.01-0.02,0.02-0.07,0.02-0.09l-0.11,0c-0.01,0.06-0.01,0.13-0.02,0.19c0-0.03-0.01-0.09-0.02-0.12
				l-0.07,0.01c-0.03,0.04-0.06,0.08-0.09,0.12c0-0.02,0-0.06,0-0.08c-0.04,0-0.11,0-0.15,0c0,0.02,0.01,0.05,0.01,0.07
				c-0.06-0.02-0.11-0.05-0.16-0.08c0,0.01,0,0.04,0,0.05c-0.07,0.01-0.15,0.01-0.21,0.05c-0.02,0-0.05-0.01-0.07-0.02
				c0.01,0.03,0.02,0.1,0.02,0.14c-0.06,0-0.1,0.03-0.11,0.09c-0.02,0-0.07,0-0.09,0c-0.14,0.04-0.28,0.08-0.42,0.12
				c0,0.02,0.01,0.05,0.01,0.07c-0.16,0.02-0.32,0.07-0.47,0.13c0.08,0.01,0.16,0.02,0.23,0.02c0.03-0.14,0.2-0.07,0.31-0.1
				c0.08-0.04,0.17-0.04,0.26-0.03c-0.05,0.02-0.11,0.03-0.16,0.05l0,0.04c-0.06,0-0.12-0.01-0.18-0.01c0,0.02,0.01,0.07,0.02,0.09
				c-0.11,0.06-0.24,0.04-0.35,0.04c0.11,0.15-0.01,0.1-0.07,0.1c-0.01-0.03-0.02-0.1-0.03-0.13c-0.03,0.1-0.14,0.06-0.21,0.07
				l0.02,0.05c-0.13,0.02-0.27,0.03-0.4,0.06c-0.04,0-0.11,0.01-0.14,0.01c-0.11-0.09-0.25-0.02-0.37,0.01
				c0,0.02,0.01,0.05,0.02,0.06C11.3,5.28,11.15,5.3,11,5.34c-0.04,0.02-0.06,0.06-0.09,0.09c-0.14,0.02-0.29,0.02-0.39,0.12
				c-0.12,0.11-0.34,0.04-0.43,0.19C9.97,5.8,9.81,5.79,9.74,5.92C9.62,5.96,9.46,5.97,9.4,6.09C9.32,6.13,9.24,6.17,9.16,6.2
				c-0.03,0.04-0.07,0.08-0.1,0.12c-0.03,0-0.08,0-0.1,0C8.88,6.43,8.77,6.5,8.68,6.59C8.59,6.63,8.54,6.7,8.51,6.79
				C8.49,6.79,8.43,6.8,8.4,6.8c0,0.03,0.01,0.1,0.01,0.13c-0.07,0.02-0.14,0.04-0.2,0.05C8.19,7.05,8.17,7.12,8.14,7.18
				C8.13,7.18,8.09,7.17,8.08,7.16C8.04,7.25,8,7.34,7.96,7.42c-0.03,0-0.1,0.01-0.13,0.01c0-0.03,0.01-0.1,0.02-0.13
				C7.83,7.37,7.82,7.45,7.81,7.52c-0.03,0-0.08-0.01-0.11-0.02C7.68,7.55,7.65,7.6,7.63,7.64c-0.03,0-0.1-0.01-0.14-0.01
				C7.48,7.68,7.47,7.74,7.46,7.79c-0.1,0-0.14,0.05-0.13,0.14C7.29,7.95,7.24,7.97,7.2,7.98c0,0.02,0,0.05,0,0.07
				C7.17,8.1,7.13,8.15,7.1,8.19C7.09,8.19,7.06,8.18,7.05,8.17C7.04,8.24,7.03,8.31,7.01,8.38l0,0.03
				C6.95,8.51,6.88,8.58,6.79,8.65C6.75,8.7,6.71,8.76,6.66,8.81C6.62,8.87,6.58,8.94,6.54,9C6.4,9.14,6.28,9.3,6.2,9.49
				c-0.02,0-0.05-0.01-0.06-0.01c0,0.03-0.01,0.1-0.01,0.14c-0.02,0-0.06-0.01-0.08-0.01C6.04,9.66,6.02,9.72,6.01,9.77
				C5.99,9.78,5.95,9.8,5.93,9.8c-0.03,0.1-0.05,0.2-0.13,0.27c-0.06,0.11-0.06,0.27-0.17,0.35c-0.04,0.12-0.08,0.24-0.12,0.36
				c-0.01,0-0.04-0.01-0.05-0.01c-0.02,0.08-0.05,0.16-0.08,0.24c-0.18,0.15-0.19,0.39-0.31,0.57c-0.05,0.13-0.09,0.26-0.14,0.39
				c-0.13,0.12-0.12,0.32-0.18,0.47c-0.12,0.04-0.05,0.21-0.16,0.25c-0.02,0.07-0.03,0.13-0.05,0.19c-0.01,0-0.04-0.01-0.06-0.01
				c-0.02,0.15-0.06,0.3-0.11,0.45c-0.08,0.05-0.08,0.16-0.11,0.24c-0.01,0.09-0.02,0.17-0.05,0.26c-0.11,0.1-0.08,0.27-0.12,0.4
				c-0.01,0-0.04-0.01-0.06-0.01c-0.03,0.16-0.08,0.32-0.11,0.48c-0.03,0-0.08-0.01-0.1-0.01c-0.03,0.17-0.08,0.34-0.12,0.51
				c-0.01,0-0.04-0.01-0.06-0.02c-0.03,0.16-0.09,0.32-0.11,0.48c-0.02,0-0.05-0.01-0.06-0.01c-0.02,0.12-0.05,0.25-0.08,0.37
				c-0.01,0.1-0.01,0.2-0.05,0.3c0,0.03,0,0.08,0,0.11c-0.02,0.01-0.06,0.04-0.08,0.05c-0.01,0.16-0.01,0.32-0.04,0.47
				c-0.04,0.25-0.01,0.49-0.02,0.74c-0.03,0-0.1-0.01-0.14-0.01c0,0.01,0,0.03,0,0.04c0.03-0.01,0.08-0.02,0.1-0.02
				c0,0.03,0.01,0.09,0.01,0.12c-0.03,0-0.08-0.01-0.1-0.02c0,0.31,0,0.63,0,0.94c0.02-0.01,0.07-0.03,0.09-0.03
				c0.02,0.26,0.02,0.51-0.01,0.77c-0.04,0.01-0.11,0.02-0.15,0.03c0.06,0.02,0.13,0.04,0.2,0.06c-0.04,0-0.13-0.01-0.17-0.01
				c0,0.17,0,0.34,0,0.51c-0.01,0-0.03-0.01-0.05-0.01c0,0.04,0,0.11,0,0.15c0.02,0,0.06,0,0.08-0.01
				c-0.06,0.04-0.13,0.07-0.19,0.11c0.03,0.01,0.09,0.02,0.12,0.02c-0.01,0.31-0.01,0.62,0.01,0.94c0,0.04,0.01,0.08,0.01,0.12
				c0.02,0.29,0.04,0.58,0.02,0.87l0.05,0L3.09,22.3c0.05,0.01,0.1,0.03,0.15,0.04c-0.02,0.06-0.04,0.13-0.06,0.19
				c-0.02-0.01-0.06-0.02-0.08-0.03c0,0.06,0,0.11,0,0.16c0.04-0.02,0.13-0.07,0.17-0.09c0,0.1,0,0.19,0,0.29
				c0.02-0.01,0.06-0.02,0.09-0.03c-0.03,0.41,0.09,0.82,0.09,1.23c0.04,0.01,0.09,0.03,0.13,0.04c-0.03,0-0.1,0-0.13,0
				c0.01,0.02,0.03,0.06,0.05,0.08c0.03,0.01,0.08,0.02,0.1,0.02c-0.04,0.01-0.11,0.02-0.14,0.03c0.04,0.05,0.08,0.09,0.11,0.14
				c0,0.14,0.01,0.28,0.03,0.42c0.02,0.09,0.01,0.2,0.1,0.25c0.03,0.13,0.05,0.27,0.06,0.41l-0.07,0c0-0.04,0.01-0.11,0.01-0.14
				c-0.02,0.01-0.06,0.02-0.08,0.03c-0.02-0.1-0.04-0.21-0.06-0.31l-0.05,0.01c0.01-0.02,0.02-0.07,0.03-0.1
				c-0.03,0-0.08,0.01-0.11,0.01c0,0.16,0.02,0.32,0.05,0.47c0.02-0.01,0.05-0.02,0.07-0.03c0.02,0.16,0.04,0.34,0.16,0.46
				c0.04,0.12,0.07,0.24,0.11,0.36c0.02,0,0.06,0.01,0.08,0.01c0.07,0.11,0.09,0.24,0.13,0.37c0.02,0.01,0.05,0.03,0.07,0.04
				c0.02,0.09,0.04,0.17,0.07,0.26c0.01,0,0.05-0.01,0.06-0.02c0.04,0.14,0.05,0.31,0.17,0.41c0.03,0.09,0.07,0.18,0.1,0.27
				c0.04,0.02,0.08,0.03,0.13,0.05c0.03,0.08,0.07,0.17,0.1,0.25c0.01,0,0.04-0.01,0.06-0.01c0.02,0.09,0.05,0.17,0.08,0.26
				c0.03,0,0.08,0,0.1-0.01c0.02,0.07,0.04,0.15,0.06,0.22c0.02,0,0.06-0.01,0.08-0.02c0.04,0.1,0.01,0.29,0.16,0.27
				c0.02,0.08,0.04,0.16,0.06,0.25c0.01,0,0.03-0.01,0.04-0.01c0.04,0.05,0.08,0.09,0.12,0.13c0.05,0.08,0.1,0.17,0.14,0.26
				c0.01,0,0.04-0.01,0.06-0.01c0.02,0.06,0.04,0.12,0.06,0.18c0.03,0,0.09,0,0.13,0c0,0.06,0.01,0.12,0.01,0.18
				c0.06,0.06,0.1,0.13,0.14,0.21c0.02,0,0.06-0.01,0.08-0.02c0,0.04-0.01,0.11-0.01,0.15c0.02-0.01,0.07-0.03,0.1-0.03l-0.02,0.07
				c0.02-0.01,0.07-0.01,0.09-0.02c0,0.05,0.01,0.09,0.01,0.14L6.2,30.02c0.05,0.1,0.09,0.21,0.12,0.32
				c0.02-0.01,0.05-0.02,0.06-0.02c0.04,0.09,0.04,0.24,0.17,0.24c0.01,0.07,0.04,0.14,0.1,0.18c0,0.01-0.01,0.03-0.01,0.05
				c0.02,0.01,0.07,0.02,0.1,0.03c0.05,0.03,0.1,0.07,0.15,0.1c0.03,0,0.09-0.01,0.11-0.01c0,0.03-0.01,0.08-0.02,0.11
				c0.02-0.01,0.07-0.02,0.1-0.02l-0.01,0.06c0.06,0,0.13-0.01,0.2,0c0.05,0.06,0.1,0.14,0.2,0.13c-0.01,0.02-0.02,0.05-0.03,0.07
				l0.07,0.01c-0.01,0.02-0.02,0.06-0.02,0.07c0.09,0.02,0.17,0.07,0.24,0.12c-0.09,0.02-0.17,0.04-0.25,0.06
				c0.15,0.04,0.31,0.05,0.46,0.03c0,0.05,0,0.1,0,0.16c-0.07-0.02-0.14-0.04-0.22-0.07c0,0.02-0.01,0.07-0.01,0.09
				c0.02,0,0.06-0.01,0.08-0.01c0.02,0.07,0.03,0.13,0.1,0.16c0,0.01-0.01,0.04-0.01,0.06c0.02,0,0.05-0.01,0.06-0.01
				c0.04,0.04,0.07,0.08,0.11,0.11c0,0.02-0.01,0.05-0.01,0.07c0.02,0,0.05-0.01,0.07-0.02c0.03,0.08,0.12,0.09,0.19,0.11
				c0.04,0.05,0.09,0.09,0.14,0.12c0,0.03,0.01,0.1,0.02,0.14c0.01-0.04,0.01-0.08,0.02-0.13l0.11,0c-0.01,0.03-0.02,0.09-0.03,0.12
				c0.03-0.07,0.07-0.14,0.17-0.13c0.02,0.2,0.31,0.1,0.38,0.26l0.04-0.01c-0.01,0.02-0.02,0.07-0.02,0.09
				c0.03,0,0.09-0.01,0.12-0.02c-0.02,0.15,0.13,0.17,0.24,0.2c-0.01,0.02-0.02,0.06-0.03,0.08c0.02,0,0.06-0.01,0.08-0.01
				c0.04,0.04,0.07,0.08,0.12,0.11c0,0.02-0.01,0.04-0.01,0.06c0.03,0,0.09-0.01,0.12-0.01c0.04,0.04,0.07,0.07,0.11,0.11
				c-0.01,0.02-0.02,0.05-0.02,0.07c0.03,0,0.1-0.01,0.13-0.01l0.01,0.04c0.07,0.01,0.11,0.07,0.14,0.13c0.04,0,0.08,0.01,0.12,0.01
				c0.03,0.04,0.05,0.09,0.08,0.13c0.05,0,0.1,0,0.15,0c0.04,0.05,0.07,0.1,0.11,0.15c0.06,0.01,0.11,0.05,0.15,0.09
				c0.03,0,0.08,0.01,0.11,0.01c0,0.02,0.01,0.07,0.01,0.09c0.06,0.02,0.11,0.05,0.17,0.07c0,0.03,0,0.09,0,0.11
				c0.06,0.01,0.13,0.01,0.19,0.02c0.02,0.06,0.04,0.11,0.06,0.17c0.02,0,0.05-0.01,0.07-0.01c0.02,0.02,0.05,0.05,0.07,0.07
				c0,0.01-0.01,0.04-0.01,0.06c0.04,0.03,0.09,0.06,0.13,0.08c-0.09-0.02-0.18-0.03-0.26-0.04c0-0.04,0-0.11,0-0.14
				c-0.04,0.07-0.09,0.12-0.17,0.13c0-0.03,0.01-0.08,0.02-0.11c-0.11,0.01-0.21-0.02-0.3-0.08c-0.01,0-0.03,0-0.04,0
				c-0.04-0.11-0.16-0.13-0.26-0.15c0.01-0.11-0.1-0.1-0.18-0.11c-0.02-0.02-0.06-0.05-0.09-0.06c0.06,0.09,0.1,0.21,0.23,0.2
				c0.13,0.15,0.28,0.3,0.47,0.39c0.04,0.11,0.16,0.13,0.26,0.16c0.02,0.07,0.07,0.11,0.14,0.12c0.04,0.04,0.07,0.07,0.11,0.11
				c0.05,0.02,0.1,0.05,0.15,0.07c0,0.02-0.01,0.05-0.01,0.06c0.27,0.08,0.5,0.23,0.73,0.38c0.06,0.03,0.12,0.04,0.18,0.06
				c0,0.02-0.01,0.05-0.02,0.06c0.15,0.03,0.3,0.08,0.45,0.1c-0.01,0.02-0.02,0.06-0.02,0.07c0.12,0.03,0.25,0.04,0.37,0.05
				c0-0.05-0.01-0.15-0.02-0.19c-0.06,0.01-0.11,0.01-0.16,0.01c0-0.04,0-0.11,0-0.14c0.1,0.01,0.2,0.02,0.3,0.02l0,0.04
				c0.03,0,0.08,0,0.1-0.01c0.02,0.04,0.05,0.07,0.09,0.07c0.17,0.03,0.33,0.06,0.5,0.1c0,0.01-0.01,0.04-0.02,0.05
				c0.19,0.03,0.38,0.08,0.58,0.12c0.03,0.1,0.13,0.09,0.22,0.09c0.03,0.04,0.07,0.07,0.1,0.11c0,0.01,0,0.04,0,0.06
				c0.03,0,0.08,0,0.11,0.01c0.15,0.07,0.32,0.02,0.48,0.04c0.04-0.07,0.11-0.03,0.17-0.01c0.13,0.01,0.26,0,0.39,0.04
				c0.14,0.01,0.28,0.01,0.42,0.01c-0.01,0.02-0.02,0.06-0.03,0.08c0.23-0.01,0.46-0.01,0.68,0.02c0.34,0.04,0.67,0.02,1.01,0.03
				c0,0.02-0.01,0.07-0.02,0.09c0.06,0,0.13,0,0.2,0.01c-0.01-0.02-0.02-0.07-0.03-0.1c0.13,0,0.27,0,0.4,0.01
				c0,0.06-0.01,0.12-0.01,0.18l0.05,0c0-0.04,0-0.12,0-0.16l0.07,0c0,0.04,0.01,0.12,0.01,0.16c0.03-0.06,0.07-0.12,0.1-0.18
				c0.01,0.03,0.02,0.09,0.02,0.12c0.12,0,0.23,0,0.35,0c-0.01,0.03-0.02,0.08-0.02,0.11c0.09,0.01,0.12-0.07,0.16-0.13
				c-0.01,0.03-0.02,0.09-0.02,0.13l0.08,0c0-0.03,0-0.08,0-0.11c0.01,0,0.04,0,0.05,0c0,0.04,0.01,0.13,0.01,0.17
				c0.04-0.06,0.05-0.12,0.07-0.19c-0.05,0.11,0.07,0.15,0.14,0.17c0.01-0.03,0.03-0.09,0.04-0.12c0,0.02-0.01,0.06-0.01,0.08
				c0.05,0.01,0.11,0.02,0.16,0.04c-0.05,0-0.14-0.01-0.18-0.02c0,0.05-0.01,0.1-0.01,0.14c-0.04-0.1-0.19-0.07-0.14,0.06
				c-0.01-0.04-0.02-0.08-0.03-0.11c-0.07,0.02-0.06,0.1-0.07,0.15c-0.01,0-0.02,0-0.02-0.01c0-0.02,0.01-0.07,0.02-0.1
				c-0.04,0-0.11-0.01-0.15-0.01c0,0.02-0.01,0.07-0.01,0.09c-0.01-0.04-0.03-0.08-0.04-0.13c0.06,0.01,0.13,0.01,0.19,0.02
				l0.01-0.11c-0.09,0.01-0.18,0.01-0.28,0.01l0.01-0.07c-0.04,0.02-0.11,0.05-0.15,0.06c-0.07-0.03-0.13-0.03-0.2,0.01
				c0-0.04,0-0.12,0-0.17c-0.01,0.03-0.04,0.09-0.05,0.13c-0.07,0-0.15,0-0.22,0c0-0.06,0-0.13,0-0.19
				c-0.03,0.01-0.08,0.02-0.1,0.02c0.02,0.04,0.06,0.12,0.08,0.16c-0.03,0-0.08,0.01-0.1,0.02c0-0.03,0-0.08,0-0.11
				c-0.04,0.07-0.08,0.13-0.12,0.2c0-0.07-0.01-0.2-0.01-0.26c-0.04,0.08-0.02,0.19-0.12,0.22c0,0.06,0,0.13,0,0.19
				c0.07,0,0.15-0.01,0.22-0.01c-0.01,0.06-0.01,0.12-0.01,0.18c0.03,0,0.1-0.01,0.13-0.02C18.67,36.98,18.69,37.04,18.7,37.1z
				 M24.64,36.08 M24.75,36c0.06,0.01,0.06,0.04,0.03,0.09C24.71,36.08,24.71,36.05,24.75,36z M24.79,36
				c0.09-0.03,0.19-0.05,0.28-0.06l0-0.03c0.06,0,0.19,0,0.25,0c-0.09,0.06-0.19,0.08-0.3,0.09c0,0.02,0.01,0.06,0.02,0.08
				C24.95,36.07,24.8,36.14,24.79,36z M28.95,33.67 M9.56,32.44c-0.05-0.01-0.1-0.07-0.09-0.12C9.53,32.28,9.63,32.41,9.56,32.44z
				 M8.32,32.16c0.02-0.02,0.07-0.05,0.09-0.06c0-0.09-0.01-0.19,0-0.28c0.01,0.04,0.03,0.12,0.04,0.16
				c0.02-0.01,0.06-0.02,0.08-0.02c0,0.07,0,0.14,0.01,0.21c0.05,0.02,0.14,0.06,0.19,0.08c-0.05,0.02-0.14,0.05-0.18,0.07
				C8.51,32.22,8.41,32.2,8.32,32.16z M8.9,31.92l-0.01,0.01c-0.01-0.02-0.03-0.05-0.04-0.06c-0.02-0.01-0.06-0.03-0.08-0.04
				c-0.02-0.05-0.05-0.11-0.07-0.16c-0.02,0-0.07-0.01-0.09-0.01c-0.03-0.08-0.09-0.14-0.17-0.18c-0.04-0.09-0.11-0.15-0.21-0.16
				c-0.04-0.07-0.09-0.13-0.15-0.18c-0.03-0.05-0.06-0.11-0.09-0.16c0.09,0.08,0.16,0.18,0.24,0.28c0.02,0,0.07-0.01,0.09-0.01
				c0.05,0.07,0.1,0.14,0.15,0.21c0.05,0.04,0.1,0.09,0.15,0.14c0.02,0,0.06,0,0.08,0c0.03,0.08,0.06,0.16,0.1,0.24
				c0.01,0,0.04-0.01,0.05-0.02c0-0.01,0.01-0.04,0.02-0.06c0.04,0.07,0.1,0.12,0.18,0.14c0.04,0.05,0.07,0.1,0.11,0.15
				C9.06,32,8.93,32.03,8.9,31.92z M7.81,31.34c0.04-0.02,0.12,0,0.12,0.05c-0.01,0.01-0.02,0.03-0.03,0.04
				C7.85,31.51,7.77,31.4,7.81,31.34z M32.62,31.46c0.01-0.02,0.03-0.07,0.04-0.09l-0.11,0.03c0.05-0.13,0.15-0.23,0.28-0.28
				c0.04-0.06,0.07-0.11,0.11-0.17c0.03,0,0.08,0.01,0.1,0.01c0.04-0.08,0.09-0.15,0.14-0.23c0.1-0.06,0.19-0.13,0.31-0.15
				c-0.03,0.03-0.1,0.1-0.13,0.14c-0.04,0.07-0.08,0.15-0.11,0.22c-0.1,0.05-0.16,0.14-0.18,0.24c-0.03,0-0.09,0.01-0.12,0.01
				c-0.04,0.06-0.07,0.11-0.11,0.17c-0.07,0.01-0.13,0.04-0.15,0.11C32.69,31.47,32.64,31.46,32.62,31.46z M7.62,31.07
				c-0.02,0.01-0.05,0.02-0.07,0.03l0-0.06c-0.07,0-0.14,0.01-0.22,0.01c0-0.06,0-0.12,0-0.18L7.3,30.88
				c-0.02-0.06-0.04-0.11-0.05-0.17c-0.02,0-0.06,0.01-0.08,0.01l0.01-0.06l-0.07,0.01c0.01-0.02,0.02-0.06,0.03-0.09l-0.06,0
				c0-0.02,0.01-0.07,0.02-0.09c-0.02,0-0.07,0.01-0.09,0.02c-0.02-0.09-0.04-0.17-0.06-0.26c0.05,0.05,0.11,0.1,0.17,0.14
				c0.03,0.06,0.05,0.12,0.07,0.18c0.04,0.06,0.1,0.11,0.16,0.16c0,0.02,0,0.06,0,0.08c0.09,0.07,0.18,0.15,0.29,0.19
				c0.03,0.05,0.05,0.11,0.07,0.17c0.02,0,0.07-0.01,0.09-0.01c-0.01,0.03-0.03,0.1-0.04,0.14C7.69,31.23,7.64,31.16,7.62,31.07z
				 M7.03,30.85 M6.38,29.82c-0.02,0-0.05,0.01-0.07,0.02c-0.03-0.08-0.07-0.17-0.1-0.25c-0.03-0.01-0.08-0.02-0.11-0.02
				c0.05,0,0.1,0,0.16,0c0,0.09,0.02,0.19,0.14,0.18c0.02,0.06,0.04,0.12,0.06,0.18c0.05-0.03,0.1-0.05,0.15-0.08
				c0.01,0.03,0.02,0.07,0.03,0.1l-0.07-0.01c0,0.03,0.01,0.08,0.02,0.11C6.43,30.06,6.41,29.92,6.38,29.82z M7.35,28.67
				c-0.03-0.07-0.05-0.15-0.08-0.22c-0.09-0.04-0.13-0.13-0.16-0.23c-0.02,0-0.07-0.01-0.09-0.02c-0.03-0.09-0.06-0.19-0.08-0.28
				c-0.02,0-0.06,0.01-0.09,0.01c0.01-0.03,0.02-0.08,0.03-0.11c-0.03,0.01-0.08,0.03-0.11,0.03c0-0.02,0.01-0.07,0.02-0.09
				c-0.02-0.01-0.07-0.03-0.09-0.04c0.04,0,0.11-0.01,0.14-0.01c-0.01,0.03-0.02,0.08-0.03,0.11c0.02-0.01,0.07-0.02,0.1-0.03
				c0,0.01,0,0.04,0,0.06c0.04,0.06,0.07,0.12,0.1,0.18c0.11,0.06,0.13,0.18,0.17,0.28c0.01,0,0.04-0.01,0.05-0.02
				c0.04,0.1,0.08,0.2,0.11,0.31c0.02,0,0.05-0.01,0.07-0.02c0,0.03,0,0.08,0,0.11C7.4,28.7,7.37,28.68,7.35,28.67z M35.32,28.42
				 M5.93,27.42c-0.02-0.09-0.04-0.18-0.05-0.27c-0.05-0.02-0.09-0.06-0.11-0.11c-0.02-0.07-0.05-0.15-0.08-0.22
				c-0.11-0.06-0.09-0.19-0.12-0.29c-0.02-0.04-0.04-0.07-0.05-0.11c0.02,0,0.05,0,0.06,0c0,0.02,0,0.07,0,0.1
				c0.02,0,0.06-0.01,0.08-0.02c0.04,0.13,0.07,0.27,0.16,0.37c0.03,0.04,0.06,0.09,0.09,0.13c0,0.03,0,0.08,0,0.11
				c0.02,0,0.07-0.01,0.09-0.02c0,0.07,0,0.15,0,0.22c0.03,0,0.09-0.01,0.13-0.01c-0.04,0.04-0.08,0.09-0.11,0.13
				C5.99,27.43,5.95,27.42,5.93,27.42z M36,26.72 M13.74,26.42c-0.08-0.04-0.06-0.14-0.08-0.22c0.04,0.06,0.07,0.11,0.09,0.17
				c0.04,0.02,0.07,0.05,0.11,0.07c0.02,0.07,0.08,0.13,0.13,0.19C13.89,26.58,13.83,26.48,13.74,26.42z M35.11,25.96
				c0-0.05-0.01-0.09-0.01-0.14c0.03,0,0.08,0,0.11,0c0,0.05-0.01,0.09-0.01,0.14C35.18,25.96,35.14,25.96,35.11,25.96z
				 M36.17,25.89c-0.02-0.07,0-0.09,0.07-0.07C36.26,25.89,36.23,25.92,36.17,25.89z M36.17,25.77 M36.35,25.64 M36.26,25.15
				c0.03-0.09,0.06-0.17,0.1-0.26c-0.03,0-0.08-0.01-0.11-0.01c0.02,0,0.05-0.01,0.06-0.01c-0.01-0.1-0.01-0.21-0.01-0.31
				c0.03,0,0.09,0.01,0.12,0.01c-0.01,0.06-0.01,0.11-0.02,0.17c-0.02,0.01-0.07,0.04-0.09,0.05c0.03,0,0.09,0,0.11-0.01
				c-0.01,0.06-0.02,0.12-0.03,0.19c-0.06,0.05-0.09,0.11-0.06,0.19L36.26,25.15z M36.36,24.51l-0.01-0.04
				C36.42,24.41,36.45,24.56,36.36,24.51z M36.3,24.43c0.04-0.15,0.05-0.31,0.05-0.47c0.01,0,0.03,0,0.03-0.01
				c0.01,0.09,0.01,0.17,0.02,0.26c0,0.07,0.01,0.15,0.03,0.22C36.39,24.43,36.35,24.43,36.3,24.43z M4.49,23.71
				c0.07-0.02,0.09,0,0.08,0.07C4.49,23.8,4.47,23.77,4.49,23.71z M4.43,23.65c-0.01-0.03-0.01-0.08-0.02-0.11
				c0.09,0.01,0.18,0.02,0.27,0.03C4.6,23.6,4.52,23.63,4.43,23.65z M4.42,23.49 M35.66,23.5 M35.66,23.37 M4.3,23.23l0.11-0.01
				c0.01-0.08-0.04-0.1-0.11-0.09c0-0.02,0.01-0.06,0.01-0.09c0.02,0,0.07-0.01,0.09-0.01c0.02,0.08,0.03,0.16,0.05,0.25
				C4.39,23.27,4.35,23.25,4.3,23.23z M3.51,22.23c0.06,0.04,0.06,0.07,0,0.11C3.45,22.3,3.45,22.26,3.51,22.23z M3.22,20.76
				c0-0.26-0.02-0.53,0.02-0.79c0.02,0.46,0.01,0.92,0,1.38C3.21,21.16,3.22,20.96,3.22,20.76z M36.22,19.73
				c0.03,0.05,0.03,0.1-0.01,0.13C36.1,19.86,36.12,19.62,36.22,19.73z M36.12,19.72c0-0.05-0.01-0.14-0.01-0.18
				c-0.02,0-0.07-0.01-0.1-0.01c0.01-0.08,0.02-0.17,0.07-0.25C36.11,19.42,36.22,19.59,36.12,19.72z M36.04,19.2
				c0.02,0.01,0.05,0.02,0.06,0.02l0,0.03C36.07,19.32,35.96,19.24,36.04,19.2z M35.84,19.21c-0.05-0.06,0.05-0.14,0.1-0.07
				C35.98,19.2,35.88,19.28,35.84,19.21z M35.84,18.95c0.01-0.06,0.04-0.06,0.09-0.02C35.91,18.99,35.88,18.99,35.84,18.95z
				 M35.31,18.16c0.03-0.06,0.06-0.06,0.1,0C35.38,18.23,35.34,18.23,35.31,18.16z M34.89,15.58 M34.57,14.71
				c0.04-0.06,0.07-0.06,0.11,0C34.65,14.77,34.61,14.77,34.57,14.71z M34.41,14.44c0-0.01,0-0.03,0-0.05c0.08,0,0.17,0,0.25,0
				c0,0.01,0,0.03,0,0.04C34.58,14.44,34.49,14.44,34.41,14.44z M31,11.51c-0.07-0.02-0.14-0.05-0.21-0.07c0,0,0-0.01,0-0.02
				c0.04,0,0.1-0.01,0.14-0.01c-0.04-0.02-0.12-0.07-0.16-0.09c0-0.02,0-0.06,0-0.08c-0.05-0.03-0.1-0.06-0.15-0.09
				c0-0.02,0.01-0.05,0.02-0.07c-0.02-0.05-0.04-0.1-0.05-0.15c-0.02,0.01-0.06,0.02-0.08,0.02l0-0.11c0.05,0.03,0.1,0.05,0.14,0.08
				c0.01,0.12,0.12,0.18,0.16,0.28c0.02,0.01,0.06,0.03,0.08,0.04c0,0.03,0.01,0.08,0.01,0.1c0.13,0.06,0.15,0.22,0.18,0.35
				C31.05,11.64,31.02,11.57,31,11.51z M29.53,9.61c-0.06-0.04-0.11-0.08-0.15-0.13c-0.11-0.04-0.18-0.12-0.22-0.22
				c-0.02,0.01-0.05,0.02-0.06,0.03c-0.02-0.06-0.03-0.13-0.05-0.2c-0.03,0-0.1,0.01-0.13,0.02l0.01-0.05c-0.04,0-0.11,0-0.15,0
				c-0.04-0.05-0.06-0.12-0.09-0.18c-0.03,0-0.09,0.01-0.12,0.02c0-0.03,0.01-0.09,0.02-0.13c-0.06-0.02-0.11-0.04-0.17-0.07
				c-0.04-0.08-0.08-0.16-0.11-0.24c-0.02,0.02-0.06,0.05-0.08,0.07c0-0.02,0.01-0.06,0.01-0.08c-0.04-0.03-0.08-0.07-0.12-0.11
				c-0.02,0-0.05,0-0.06,0c0-0.02,0.01-0.05,0.02-0.07c-0.04-0.05-0.08-0.1-0.12-0.15c-0.03,0-0.09,0-0.12,0
				c-0.02-0.05-0.04-0.11-0.06-0.16c-0.04,0-0.07-0.01-0.11-0.02c-0.04-0.08-0.1-0.15-0.16-0.21c0.11-0.01,0.14,0.1,0.2,0.16
				c0.09,0.02,0.19,0.03,0.28,0.04c-0.05,0.01-0.1,0.02-0.15,0.03c0,0.02,0,0.06,0,0.08c0.09,0.02,0.18,0.04,0.27,0.04
				c0.05,0.04,0.11,0.08,0.18,0.09c-0.01,0.02-0.02,0.06-0.02,0.08c0.03,0,0.08-0.01,0.1-0.01l-0.01,0.07
				c0.02-0.01,0.05-0.02,0.07-0.03c0.03,0.07,0.07,0.13,0.11,0.18c0.03,0,0.1-0.01,0.13-0.02c0,0.01,0,0.04,0,0.06
				c0.04,0.05,0.08,0.1,0.11,0.15c0.04,0.03,0.09,0.07,0.13,0.1c0,0.03,0,0.08,0.01,0.11c0.03,0,0.08,0.01,0.1,0.01
				c0.03,0.07,0.06,0.13,0.09,0.19c0.02,0,0.07,0.01,0.09,0.01c0,0.02,0.01,0.07,0.01,0.09c0.03,0.05,0.07,0.1,0.1,0.15
				c0.08,0.03,0.14,0.09,0.2,0.14c0.04,0.08,0.08,0.16,0.12,0.25C29.6,9.69,29.57,9.65,29.53,9.61z M11.43,8.4 M7.63,7.83L7.62,7.7
				l0.05,0.01c0-0.03,0-0.1,0-0.13c0.06,0,0.12,0,0.18,0C7.85,7.55,7.84,7.49,7.83,7.46C7.96,7.5,8.01,7.39,8.04,7.3
				c0.02,0,0.05,0,0.07,0L8.1,7.22c0.02,0.01,0.07,0.03,0.1,0.05c0-0.04-0.01-0.11-0.01-0.14c0.04,0,0.12,0.01,0.15,0.01
				c0.03-0.05,0.06-0.1,0.09-0.15C8.51,6.95,8.59,6.9,8.63,6.82C8.71,6.8,8.79,6.79,8.87,6.79C8.88,6.75,8.9,6.71,8.92,6.67
				c0.09,0,0.18-0.01,0.24-0.09c0.02,0,0.05,0,0.07,0.01C9.23,6.57,9.22,6.53,9.21,6.52C9.31,6.5,9.4,6.46,9.49,6.4
				C9.46,6.46,9.43,6.52,9.41,6.58C9.3,6.55,9.26,6.63,9.21,6.71C9.18,6.7,9.12,6.7,9.09,6.7c0,0.03-0.01,0.1-0.01,0.13
				c-0.03,0-0.1,0-0.13-0.01C8.94,6.84,8.92,6.88,8.91,6.89C8.7,7,8.6,7.23,8.37,7.31C8.36,7.33,8.34,7.37,8.33,7.39
				c-0.03,0-0.08,0-0.1,0C8.16,7.43,8.1,7.47,8.04,7.51C7.91,7.62,7.79,7.76,7.63,7.83z M27.37,7.74c0-0.04,0-0.11,0-0.15
				c0.07,0.03,0.14,0.07,0.21,0.1C27.52,7.75,27.44,7.75,27.37,7.74z M27.27,7.56 M27.07,7.43 M30.2,7.22
				c-0.04-0.08-0.08-0.17-0.11-0.26l0.12,0c-0.01,0.02-0.03,0.07-0.04,0.1c0.03,0,0.09-0.01,0.11-0.01c0,0.02-0.01,0.07-0.02,0.09
				l0.06-0.02c0,0.04,0,0.13,0,0.17C30.3,7.27,30.23,7.23,30.2,7.22z M26.06,6.73c0.04-0.06,0.07-0.06,0.11,0
				C26.13,6.79,26.09,6.79,26.06,6.73z M9.53,6.67c0.03-0.04,0.06-0.09,0.09-0.13c0.05,0,0.1,0.01,0.15,0.01
				c0.01-0.02,0.02-0.07,0.02-0.09c0.06,0,0.13,0,0.19,0c0.02-0.04,0.04-0.08,0.06-0.11c0.07-0.02,0.14-0.04,0.21-0.06
				c0-0.03,0-0.08,0-0.11c0.02,0.03,0.05,0.06,0.08,0.08c0.01-0.01,0.02-0.03,0.03-0.04c0.03-0.01,0.08-0.02,0.1-0.03l-0.02,0.06
				c0.02,0,0.07,0.01,0.1,0.01c0-0.03-0.01-0.08-0.01-0.11c0.03,0,0.1,0.01,0.13,0.02c0.02-0.02,0.05-0.07,0.06-0.09
				c0.02,0,0.07,0,0.1,0c0.02-0.07,0.07-0.11,0.15-0.12c0,0.04,0.01,0.11,0.01,0.15c-0.11,0.03-0.24,0.03-0.3,0.14
				c-0.1,0.03-0.19,0.04-0.29,0.04c-0.02,0.02-0.06,0.05-0.09,0.07c0,0.01-0.01,0.04-0.01,0.05c-0.03,0-0.08,0-0.11,0
				c-0.08,0.05-0.16,0.08-0.25,0.1c0,0.02,0.01,0.05,0.01,0.07c-0.05,0-0.1,0-0.15-0.01C9.77,6.6,9.74,6.63,9.72,6.65
				C9.66,6.66,9.6,6.66,9.53,6.67z M25.92,6.63 M22.8,6.5c-0.29,0-0.58-0.1-0.87-0.12c0.12-0.02,0.24-0.02,0.36-0.02
				c0.02-0.07,0.05-0.15,0.07-0.22c0.01,0.03,0.02,0.08,0.02,0.1c0.21,0.04,0.43,0.07,0.64,0.12c0,0.02-0.01,0.05-0.01,0.07
				c0.1,0.02,0.21,0.04,0.31,0.06c0,0.02,0,0.07,0,0.1c-0.05,0-0.1-0.01-0.15-0.01c0.01-0.02,0.02-0.06,0.03-0.08
				c-0.04,0-0.13,0-0.17,0.01c-0.03,0.04-0.06,0.08-0.1,0.12c0-0.03-0.01-0.09-0.01-0.12l-0.08-0.01c-0.01,0.04-0.02,0.11-0.02,0.15
				C22.82,6.61,22.81,6.54,22.8,6.5z M25.7,6.52 M11,6.42 M25.52,6.42 M22.21,6.22c0.04-0.05,0.07-0.05,0.09,0.01
				C22.27,6.27,22.24,6.27,22.21,6.22z M21.75,6.17l0-0.02c0.16,0,0.32,0,0.48,0.01C22.07,6.18,21.91,6.17,21.75,6.17z M11.16,5.96
				c0.08-0.01,0.15-0.01,0.23-0.02c0-0.03-0.01-0.09-0.01-0.12c0.1,0.01,0.2-0.01,0.19-0.13l-0.1-0.01c0,0.02,0.01,0.05,0.01,0.07
				c-0.05,0-0.1,0-0.15,0c0-0.02,0-0.06,0-0.08c0.12-0.02,0.24-0.04,0.36-0.06c0-0.02-0.01-0.05-0.02-0.07
				c0.18-0.06,0.37-0.12,0.56-0.09c0-0.03-0.01-0.1-0.02-0.13c0.03,0,0.09,0,0.12-0.01c0.12-0.05,0.25-0.06,0.38-0.08
				c-0.01-0.02-0.02-0.06-0.03-0.08c0.05,0,0.1,0,0.15-0.01c-0.01,0.03-0.02,0.08-0.03,0.1c0.03-0.01,0.08-0.02,0.1-0.02l0,0.04
				c-0.12,0.03-0.27,0.04-0.32,0.17c-0.03,0-0.08,0-0.11,0c-0.1,0.04-0.21,0.06-0.28,0.15c-0.1,0.04-0.19,0.07-0.28,0.11
				c0,0.02,0.01,0.05,0.02,0.07c-0.08,0.01-0.16,0.01-0.24,0.03c-0.04,0.03-0.08,0.05-0.11,0.07C11.49,5.96,11.29,6.12,11.16,5.96z
				 M21.48,5.98c0-0.07-0.01-0.13-0.01-0.2c0.28,0,0.56,0,0.84,0c0.09,0.01,0.17,0.05,0.25,0.08c0.03,0,0.09,0,0.12,0
				c0,0.01,0,0.04,0,0.06c-0.07,0-0.14,0-0.21,0c-0.01-0.02-0.04-0.07-0.05-0.09c0,0.03,0,0.1,0,0.13c-0.02,0-0.06,0.01-0.08,0.01
				c0-0.03,0-0.08,0-0.1c-0.01,0-0.03,0-0.04-0.01c-0.01,0.03-0.02,0.09-0.02,0.12c-0.02-0.01-0.07-0.03-0.09-0.04
				C22.2,5.94,22.22,5.98,22.22,6c-0.14,0.02-0.29,0.04-0.43,0.01C21.69,5.99,21.59,5.98,21.48,5.98z M21.41,5.81
				c0.06,0,0.05,0.11,0.02,0.14C21.37,5.95,21.38,5.84,21.41,5.81z M10.82,5.91c-0.03-0.05-0.02-0.08,0.04-0.08
				C10.89,5.88,10.88,5.91,10.82,5.91z M20.86,5.81c0.01,0.02,0.04,0.06,0.05,0.08C20.86,6.01,20.72,5.81,20.86,5.81z M21,5.82
				c0,0.02,0,0.07,0,0.09C20.92,5.94,20.93,5.8,21,5.82z M13,5.39c0.03-0.07,0.06-0.07,0.1,0C13.07,5.45,13.04,5.45,13,5.39z
				 M24.63,4.19c-0.08,0-0.16-0.01-0.23-0.01c-0.03-0.03-0.07-0.05-0.1-0.08c-0.04,0.01-0.11,0.03-0.15,0.04c0-0.05,0-0.14,0-0.18
				c0.05,0.03,0.09,0.06,0.14,0.1c0.05-0.02,0.1-0.03,0.15-0.05c0,0.03,0,0.09,0,0.12c0.03-0.01,0.09-0.02,0.12-0.03
				c0.01,0.02,0.02,0.06,0.02,0.08c0.02-0.01,0.06-0.03,0.07-0.04c0,0.06,0,0.12,0,0.19C24.64,4.28,24.63,4.22,24.63,4.19z
				 M23.9,3.99c-0.06-0.01-0.11-0.01-0.17-0.02c0.02-0.04,0.06-0.11,0.08-0.15c0.01,0.04,0.03,0.12,0.05,0.16
				c0.01-0.03,0.02-0.08,0.02-0.1l0.08,0c0.02,0.06,0.03,0.13,0.05,0.19C23.98,4.04,23.93,4.01,23.9,3.99z M24.07,4.01 M19.7,3.92
				c0.04-0.06,0.07-0.06,0.11,0c-0.01,0.01-0.04,0.03-0.05,0.05C19.74,3.95,19.71,3.93,19.7,3.92z M21.25,3.94 M21.68,3.94
				c-0.07-0.04,0.02-0.14,0.08-0.09C21.83,3.89,21.74,3.98,21.68,3.94z M23.49,3.85c-0.15-0.01-0.3-0.01-0.44-0.05
				c0.24-0.01,0.48,0,0.71,0.04c-0.02,0.06-0.05,0.11-0.07,0.17c-0.02-0.04-0.06-0.13-0.08-0.17c-0.02,0.05-0.03,0.1-0.05,0.15
				C23.53,3.95,23.51,3.9,23.49,3.85z M20.45,3.78c0.01-0.03,0.01-0.08,0.02-0.11c-0.03,0-0.08,0.01-0.1,0.02
				c0-0.03,0.01-0.1,0.01-0.14c-0.05,0.01-0.14,0.02-0.19,0.02c0.04-0.04,0.08-0.09,0.12-0.13c-0.03-0.01-0.1-0.04-0.14-0.05
				c0.3-0.01,0.6-0.03,0.89,0.03c0,0.03,0,0.09,0,0.12c0.04-0.05,0.08-0.11,0.13-0.17c0,0.05,0.01,0.15,0.01,0.2
				c0.01-0.04,0.04-0.12,0.06-0.17l0.03,0.01c-0.01,0.03-0.02,0.08-0.02,0.11c0.09,0.01,0.17-0.02,0.19-0.12
				c0.01,0.06,0.02,0.13,0.04,0.19c-0.03-0.01-0.08-0.01-0.1-0.02l0.02,0.06c-0.12,0-0.24-0.01-0.36-0.01l0.01,0.05
				c-0.1-0.01-0.19-0.02-0.28-0.04c-0.09,0.03-0.19,0.03-0.29,0.04c0,0.02,0.01,0.07,0.02,0.09C20.49,3.78,20.46,3.78,20.45,3.78z
				 M22.16,3.5c0-0.03-0.01-0.09-0.01-0.12c-0.2,0.01-0.39-0.02-0.58-0.05c0-0.02,0.01-0.07,0.01-0.09
				c0.14,0.01,0.29,0.02,0.43,0.01l-0.02,0.05c0.06,0,0.12,0,0.18,0.01c-0.01-0.01-0.02-0.04-0.02-0.06c0.11,0,0.22,0,0.33,0
				L22.45,3.3c0.19,0.03,0.39,0.04,0.59,0.03l0,0.02c-0.25,0.06-0.52-0.07-0.76,0.02c-0.04,0-0.07,0-0.1-0.01
				C22.17,3.42,22.17,3.46,22.16,3.5z M19,3.34c-0.16,0-0.32,0.01-0.48,0.02l0-0.03c0.09,0,0.19-0.01,0.28-0.01
				c0-0.02-0.01-0.05-0.01-0.06c0.21-0.05,0.44-0.01,0.65-0.09c0,0.09-0.01,0.19-0.03,0.28c-0.01-0.06-0.03-0.18-0.03-0.24
				c-0.02,0.05-0.07,0.14-0.09,0.19c-0.05-0.02-0.09-0.04-0.14-0.07c-0.02,0.02-0.06,0.05-0.08,0.07C19.05,3.38,19.01,3.36,19,3.34z
				 M19.49,3.24"/>
		</g>
		<path class="st0" d="M21.63,37.13c0.26,0,0.52,0.03,0.78-0.02c0.34,0.01,0.67-0.03,1.01-0.1c0-0.02-0.01-0.05-0.02-0.07
			c0.23,0.02,0.43-0.08,0.66-0.11c0-0.02-0.01-0.05-0.01-0.06c0.14-0.01,0.29-0.03,0.43-0.06c-0.23-0.02-0.45,0.07-0.68,0.09
			c-0.01,0.02-0.03,0.06-0.03,0.08c-0.34-0.01-0.66,0.09-1,0.08c0,0.01,0.01,0.04,0.02,0.05c-0.2,0-0.39,0.01-0.59,0.01
			c-0.2,0.05-0.41,0.02-0.61,0.03L21.63,37.13z"/>
		<path class="st0" d="M20.46,36.76c-0.05,0.04,0,0.16,0.07,0.11C20.58,36.82,20.52,36.71,20.46,36.76z"/>
		<path class="st0" d="M15.66,36.4c0.01,0,0.04-0.01,0.06-0.01c0-0.02-0.01-0.07-0.01-0.1c0.02,0.01,0.07,0.02,0.09,0.02
			c0-0.04,0-0.11-0.01-0.14c-0.02,0-0.07-0.01-0.09-0.01l-0.01,0.03C15.68,36.26,15.67,36.33,15.66,36.4z"/>
		<path class="st0" d="M18.48,36.4c0.04,0.07,0.14-0.01,0.1-0.07C18.54,36.26,18.44,36.34,18.48,36.4z"/>
		<path class="st0" d="M33.7,11.7c0.05,0.01,0.1,0.01,0.16,0.02c-0.02-0.08-0.03-0.16-0.05-0.24c0-0.03-0.01-0.08-0.01-0.11
			c-0.03,0-0.09,0.01-0.12,0.01c-0.02-0.12-0.07-0.24-0.11-0.35c-0.02,0.01-0.06,0.02-0.07,0.02l0-0.07
			c-0.05,0.01-0.16,0.02-0.21,0.02c0.04,0.01,0.11,0.03,0.15,0.04c0.02,0.1,0.06,0.2,0.1,0.3l0.04-0.02
			c0.02,0.07,0.04,0.14,0.05,0.21c0.02,0.01,0.06,0.04,0.07,0.05C33.7,11.61,33.7,11.67,33.7,11.7z"/>
		<path class="st0" d="M33.19,10.83c0.02,0,0.05,0,0.07,0l0.02-0.03C33.28,10.71,33.12,10.76,33.19,10.83z"/>
	</g>
	<g>
		<text transform="matrix(0.7848 0 0 1 9.5257 26.2819)" class="st1 st2 st3">HEALTHY FOOD</text>
		<g>
			<g>
				<g>
					<g>
						<path class="st1" d="M17.05,12.57c-0.09-0.6,0.04-1.22,0.34-1.75c0.18-0.3,0.46-0.57,0.81-0.65c0.39-0.06,0.81,0.06,1.09,0.34
							c0.64,0.53,0.8,1.49,0.48,2.24c-0.15,0.47-0.49,0.83-0.79,1.2c-0.12,0.17-0.25,0.34-0.29,0.54c-0.11,0.59-0.11,1.19-0.04,1.78
							c0.04,0.76,0.22,1.51,0.22,2.28c-0.01,0.27-0.07,0.58-0.31,0.74c-0.19,0.12-0.41,0.01-0.57-0.11
							c-0.23-0.21-0.35-0.52-0.41-0.82c-0.03-0.5,0.08-1,0.16-1.5c0.14-0.59,0.11-1.2,0.19-1.8c-0.02-0.37,0.05-0.79-0.17-1.11
							C17.52,13.5,17.15,13.09,17.05,12.57z M17.36,12.84c0.23,0.41,0.5,0.8,0.66,1.25c0.09,0.24,0.06,0.49,0.07,0.74
							c0.02,0.48,0.01,0.97-0.07,1.44c-0.04,0.56-0.15,1.11-0.23,1.67c-0.09,0.39,0.06,0.81,0.32,1.11l0,0.01
							c0.11,0.04,0.23,0.17,0.35,0.09c0.2-0.14,0.23-0.41,0.23-0.64c-0.01-0.43-0.07-0.87-0.14-1.29c-0.06-0.73-0.2-1.46-0.13-2.19
							c0.02-0.25,0.1-0.5,0.14-0.75c0.06-0.12,0.13-0.24,0.18-0.37c0.32-0.25,0.55-0.59,0.75-0.94c0.19-0.38,0.31-0.81,0.23-1.23
							c-0.06-0.34-0.19-0.7-0.47-0.91c-0.28-0.43-0.96-0.62-1.38-0.28c-0.35,0.28-0.56,0.71-0.64,1.15
							C17.12,12.08,17.19,12.49,17.36,12.84z"/>
					</g>
					<path class="st1" d="M18.7,13.22c0.03-0.12,0.06-0.24,0.12-0.36c0.15-0.28,0.26-0.59,0.27-0.92c0-0.3-0.08-0.6-0.15-0.89
						c0.03,0.02,0.09,0.07,0.12,0.1c0.25,0.57,0.21,1.23-0.06,1.78C18.93,13.05,18.86,13.21,18.7,13.22z"/>
					<g>
						<path class="st4" d="M17.36,12.84c-0.18-0.35-0.24-0.76-0.14-1.14c0.09-0.44,0.29-0.87,0.64-1.15
							c0.42-0.35,1.1-0.16,1.38,0.28c0.13,0.31,0.24,0.63,0.24,0.97c0,0.55-0.15,1.11-0.46,1.57c-0.12,0.17-0.22,0.35-0.29,0.55
							c-0.05,0.13-0.12,0.25-0.18,0.37c-0.24,0.41-0.3,0.89-0.34,1.35c-0.02,0.58-0.03,1.17,0.02,1.75
							c0.05,0.55,0.12,1.16-0.14,1.67c-0.26-0.3-0.41-0.72-0.32-1.11c0.08-0.56,0.19-1.11,0.23-1.67c0.08-0.48,0.09-0.96,0.07-1.44
							c-0.01-0.25,0.02-0.5-0.07-0.74C17.86,13.65,17.59,13.25,17.36,12.84z M18.7,13.22c0.16-0.01,0.23-0.17,0.3-0.29
							c0.27-0.55,0.31-1.21,0.06-1.78c-0.03-0.02-0.09-0.07-0.12-0.1c-0.05,0.44,0.05,0.89-0.04,1.33
							c-0.03,0.16-0.07,0.31-0.08,0.48C18.76,12.98,18.72,13.1,18.7,13.22z"/>
					</g>
					<path class="st5" d="M18.1,19.06L18.1,19.06c0.26-0.52,0.19-1.12,0.15-1.68c-0.05-0.58-0.05-1.17-0.02-1.75
						c0.04-0.46,0.1-0.94,0.34-1.35c-0.05,0.25-0.12,0.49-0.14,0.75c-0.07,0.73,0.07,1.46,0.13,2.19c0.07,0.43,0.12,0.86,0.14,1.29
						c0,0.22-0.03,0.5-0.23,0.64C18.33,19.23,18.21,19.1,18.1,19.06z"/>
					<path class="st5" d="M18.74,13.91c0.07-0.2,0.17-0.38,0.29-0.55c0.31-0.46,0.46-1.02,0.46-1.57c0-0.34-0.12-0.66-0.24-0.97
						c0.29,0.21,0.42,0.57,0.47,0.91c0.08,0.42-0.04,0.86-0.23,1.23C19.28,13.32,19.06,13.67,18.74,13.91z"/>
					<path class="st5" d="M18.82,12.86c0-0.16,0.04-0.32,0.08-0.48c0.09-0.44-0.01-0.89,0.04-1.33c0.07,0.29,0.15,0.59,0.15,0.89
						C19.08,12.27,18.96,12.58,18.82,12.86z"/>
				</g>
				<g>
					<g>
						<path class="st1" d="M20.92,18.55c-0.09-0.23-0.04-0.48-0.02-0.73c0.05-0.44,0.12-0.87,0.21-1.3
							c0.06-0.48,0.06-0.97,0.12-1.45c-0.01-0.41,0-0.82-0.05-1.23c-0.05-0.8-0.08-1.6-0.1-2.39c0-0.27,0.01-0.54,0.08-0.8
							c0.03-0.14,0.09-0.3,0.25-0.35c0.14-0.04,0.24,0.09,0.3,0.2c0.2,0.39,0.27,0.83,0.38,1.25c0.15,0.59,0.33,1.17,0.45,1.76
							c0.08,0.42,0.26,0.89,0.06,1.3c-0.12,0.24-0.41,0.24-0.62,0.32c-0.05,0.09-0.05,0.19-0.05,0.29c0.01,0.3,0.02,0.6,0.05,0.9
							c0.02,0.51,0.13,1.02,0.17,1.53c0.03,0.39,0.1,0.81-0.06,1.18c-0.08,0.19-0.29,0.37-0.51,0.29
							C21.21,19.23,21.02,18.88,20.92,18.55z M21.41,19.06c0.09,0.04,0.18,0.1,0.28,0.12c0.21-0.07,0.26-0.32,0.29-0.52
							c0.03-0.63-0.13-1.26-0.17-1.89c-0.08-0.52-0.1-1.04-0.13-1.56l0.01-0.05c-0.1,0.01-0.19,0.01-0.28,0.02
							c0,0.38-0.02,0.76-0.09,1.13c-0.04,0.54-0.14,1.07-0.22,1.6C21,18.32,21.15,18.75,21.41,19.06z M21.35,13.04
							c0.01,0.67,0.04,1.33,0.05,2c0.09,0,0.19,0,0.28-0.01c0.13-0.05,0.25-0.13,0.39-0.16c0.12-0.04,0.27-0.06,0.32-0.19
							c0.15-0.35-0.01-0.73-0.07-1.09c-0.13-0.8-0.4-1.57-0.58-2.35c-0.07-0.26-0.13-0.55-0.3-0.77c-0.04,0.11-0.08,0.21-0.09,0.32
							C21.25,11.55,21.37,12.29,21.35,13.04z"/>
					</g>
					<path class="st1" d="M21.65,18.65c-0.08-0.03-0.22-0.02-0.22-0.13c-0.02-0.07,0.06-0.12,0.09-0.19
						c0.04,0.02,0.12,0.06,0.16,0.08C21.67,18.49,21.66,18.57,21.65,18.65z"/>
					<path class="st6" d="M21.63,11.7c-0.06-0.41-0.16-0.81-0.19-1.22c0.18,0.22,0.23,0.5,0.3,0.77c0.18,0.79,0.45,1.55,0.58,2.35
						c0.05,0.36,0.21,0.73,0.07,1.09c-0.05,0.13-0.2,0.15-0.32,0.19c-0.14,0.04-0.26,0.11-0.39,0.16c0.12-0.14,0.28-0.26,0.38-0.42
						c0.09-0.2,0.05-0.42,0.02-0.63C21.97,13.22,21.77,12.46,21.63,11.7z"/>
					<g>
						<path class="st4" d="M21.41,19.06c-0.26-0.31-0.41-0.74-0.32-1.15c0.08-0.53,0.18-1.06,0.22-1.6
							c0.06-0.37,0.09-0.75,0.09-1.13c0.09-0.01,0.19-0.01,0.28-0.02l-0.01,0.05c-0.09,0.47-0.09,0.94-0.05,1.41
							c-0.01,0.6,0.11,1.19,0.06,1.79c-0.04-0.02-0.12-0.06-0.16-0.08c-0.03,0.06-0.11,0.11-0.09,0.19c0,0.11,0.14,0.11,0.22,0.13
							C21.62,18.81,21.52,18.94,21.41,19.06z"/>
					</g>
					<g>
						<path class="st5" d="M21.69,19.18c-0.1-0.02-0.19-0.07-0.28-0.12c0.1-0.12,0.21-0.25,0.24-0.41c0.01-0.08,0.02-0.16,0.03-0.24
							c0.05-0.6-0.06-1.19-0.06-1.79c-0.03-0.47-0.03-0.94,0.05-1.41c0.03,0.52,0.05,1.04,0.13,1.56c0.04,0.63,0.2,1.25,0.17,1.89
							C21.95,18.85,21.91,19.11,21.69,19.18z"/>
					</g>
					<g>
						<path class="st7" d="M21.35,13.04c0.01-0.75-0.1-1.49-0.01-2.24c0.01-0.11,0.05-0.22,0.09-0.32c0.04,0.41,0.14,0.81,0.19,1.22
							c0.14,0.77,0.34,1.52,0.46,2.29c0.02,0.21,0.06,0.43-0.02,0.63c-0.11,0.16-0.26,0.28-0.38,0.42c-0.09,0-0.19,0-0.28,0.01
							C21.39,14.37,21.36,13.71,21.35,13.04z"/>
					</g>
				</g>
			</g>
			<g>
				<g>
					<g>
						<g>
							<path class="st1" d="M26.24,16.72c0.35,0.18,0.72,0.31,1.09,0.43c-0.24,0.23-0.57,0.32-0.87,0.46
								c-0.53,0.24-1.15,0.41-1.71,0.17c-0.48-0.21-0.96-0.54-1.16-1.04c0.09-0.26,0.42-0.33,0.65-0.41
								C24.92,16.12,25.62,16.42,26.24,16.72z M26.82,17.11l-0.02,0.01c-0.59-0.21-1.15-0.52-1.77-0.65c-0.42-0.08-0.85,0-1.23,0.18
								c0.6,0.03,1.14,0.32,1.71,0.48c-0.62,0.02-1.18-0.41-1.81-0.34c0.03,0.04,0.1,0.12,0.13,0.16l0.03,0
								c0.35,0.42,0.86,0.75,1.41,0.79c0.64,0.02,1.22-0.31,1.79-0.56C26.99,17.16,26.91,17.14,26.82,17.11z"/>
						</g>
						<path class="st8" d="M26.82,17.11c0.08,0.03,0.16,0.05,0.24,0.08c-0.57,0.25-1.15,0.57-1.79,0.56
							c-0.56-0.04-1.07-0.36-1.41-0.79c0.52,0.07,0.98,0.34,1.5,0.42c0.49,0.1,1-0.04,1.44-0.26L26.82,17.11z"/>
						<path class="st9" d="M25.03,16.48c0.62,0.12,1.18,0.43,1.77,0.65c-0.44,0.22-0.95,0.36-1.44,0.26
							c-0.52-0.07-0.98-0.34-1.5-0.42l-0.03,0c-0.03-0.04-0.1-0.12-0.13-0.16c0.63-0.07,1.19,0.36,1.81,0.34
							c-0.57-0.17-1.11-0.46-1.71-0.48C24.18,16.48,24.62,16.39,25.03,16.48z"/>
					</g>
					<g>
						<g>
							<g>
								<path class="st1" d="M28.86,12.74c-0.02-0.11-0.08-0.14-0.19-0.12c-1,0.08-2.03-0.05-3.02,0.22
									c-0.76,0.19-1.54,0.6-1.91,1.32c-0.25,0.5-0.41,1.08-0.36,1.64c0.35,0.29,0.84,0.15,1.21-0.02
									c1.26-0.57,2.21-1.61,3.33-2.39C28.22,13.16,28.55,12.97,28.86,12.74z M28.52,12.82c-0.54,0.4-1.11,0.76-1.62,1.2
									c-0.79,0.65-1.58,1.33-2.53,1.72c-0.26,0.12-0.55,0.14-0.83,0.09c0.05-0.12,0.1-0.23,0.15-0.34l0.02-0.01
									c0.45-0.56,1.13-0.83,1.71-1.21c0.3-0.2,0.65-0.37,0.85-0.68c-0.39,0.21-0.75,0.49-1.15,0.69
									c-0.61,0.32-1.24,0.68-1.65,1.26c0.08-0.55,0.23-1.1,0.56-1.56c0.36-0.46,0.9-0.76,1.46-0.92c0.85-0.26,1.75-0.21,2.63-0.21
									C28.25,12.8,28.39,12.82,28.52,12.82z"/>
							</g>
						</g>
						<g>
							<path class="st8" d="M28.52,12.82c-0.13,0-0.28-0.02-0.4,0.03c-0.19,0.12-0.38,0.24-0.58,0.35c-0.72,0.38-1.3,0.96-1.99,1.38
								c-0.59,0.35-1.18,0.73-1.85,0.9l-0.02,0.01c-0.05,0.11-0.1,0.23-0.15,0.34c0.28,0.05,0.57,0.03,0.83-0.09
								c0.95-0.39,1.75-1.07,2.53-1.72C27.42,13.58,27.98,13.22,28.52,12.82z"/>
						</g>
						<g>
							<path class="st9" d="M27.54,13.19c0.2-0.1,0.39-0.22,0.58-0.35c-0.88,0-1.78-0.05-2.63,0.21c-0.56,0.16-1.1,0.45-1.46,0.92
								c-0.33,0.45-0.48,1.01-0.56,1.56c0.41-0.58,1.03-0.94,1.65-1.26c0.4-0.2,0.75-0.48,1.15-0.69c-0.2,0.32-0.55,0.48-0.85,0.68
								c-0.59,0.38-1.27,0.65-1.71,1.21c0.67-0.18,1.26-0.55,1.85-0.9C26.24,14.15,26.82,13.57,27.54,13.19z"/>
						</g>
					</g>
				</g>
				<g>
					<g>
						<g>
							<path class="st1" d="M13.57,16.72c-0.35,0.18-0.72,0.31-1.09,0.43c0.24,0.23,0.57,0.32,0.87,0.46
								c0.53,0.24,1.15,0.41,1.71,0.17c0.48-0.21,0.96-0.54,1.16-1.04c-0.09-0.26-0.42-0.33-0.65-0.41
								C14.89,16.12,14.19,16.42,13.57,16.72z M12.98,17.11l0.02,0.01c0.59-0.21,1.15-0.52,1.77-0.65c0.42-0.08,0.85,0,1.23,0.18
								c-0.6,0.03-1.14,0.32-1.71,0.48c0.62,0.02,1.18-0.41,1.81-0.34c-0.03,0.04-0.1,0.12-0.13,0.16l-0.03,0
								c-0.35,0.42-0.86,0.75-1.41,0.79c-0.64,0.02-1.22-0.31-1.79-0.56C12.82,17.16,12.9,17.14,12.98,17.11z"/>
						</g>
						<path class="st8" d="M12.98,17.11c-0.08,0.03-0.16,0.05-0.24,0.08c0.57,0.25,1.15,0.57,1.79,0.56
							c0.56-0.04,1.07-0.36,1.41-0.79c-0.52,0.07-0.98,0.34-1.5,0.42c-0.49,0.1-1-0.04-1.44-0.26L12.98,17.11z"/>
						<path class="st9" d="M14.78,16.48c-0.62,0.12-1.18,0.43-1.77,0.65c0.44,0.22,0.95,0.36,1.44,0.26
							c0.52-0.07,0.98-0.34,1.5-0.42l0.03,0c0.03-0.04,0.1-0.12,0.13-0.16c-0.63-0.07-1.19,0.36-1.81,0.34
							c0.57-0.17,1.11-0.46,1.71-0.48C15.62,16.48,15.19,16.39,14.78,16.48z"/>
					</g>
					<g>
						<g>
							<g>
								<path class="st1" d="M10.95,12.74c0.02-0.11,0.08-0.14,0.19-0.12c1,0.08,2.03-0.05,3.02,0.22c0.76,0.19,1.54,0.6,1.91,1.32
									c0.25,0.5,0.41,1.08,0.36,1.64c-0.35,0.29-0.84,0.15-1.21-0.02c-1.26-0.57-2.21-1.61-3.33-2.39
									C11.59,13.16,11.25,12.97,10.95,12.74z M11.28,12.82c0.54,0.4,1.11,0.76,1.62,1.2c0.79,0.65,1.58,1.33,2.53,1.72
									c0.26,0.12,0.55,0.14,0.83,0.09c-0.05-0.12-0.1-0.23-0.15-0.34l-0.02-0.01c-0.45-0.56-1.13-0.83-1.71-1.21
									c-0.3-0.2-0.65-0.37-0.85-0.68c0.39,0.21,0.75,0.49,1.15,0.69c0.61,0.32,1.24,0.68,1.65,1.26c-0.08-0.55-0.23-1.1-0.56-1.56
									c-0.36-0.46-0.9-0.76-1.46-0.92c-0.85-0.26-1.75-0.21-2.63-0.21C11.56,12.8,11.42,12.82,11.28,12.82z"/>
							</g>
						</g>
						<g>
							<path class="st8" d="M11.28,12.82c0.13,0,0.28-0.02,0.4,0.03c0.19,0.12,0.38,0.24,0.58,0.35c0.72,0.38,1.3,0.96,1.99,1.38
								c0.59,0.35,1.18,0.73,1.85,0.9l0.02,0.01c0.05,0.11,0.1,0.23,0.15,0.34c-0.28,0.05-0.57,0.03-0.83-0.09
								c-0.95-0.39-1.75-1.07-2.53-1.72C12.39,13.58,11.82,13.22,11.28,12.82z"/>
						</g>
						<g>
							<path class="st9" d="M12.27,13.19c-0.2-0.1-0.39-0.22-0.58-0.35c0.88,0,1.78-0.05,2.63,0.21c0.56,0.16,1.1,0.45,1.46,0.92
								c0.33,0.45,0.48,1.01,0.56,1.56c-0.41-0.58-1.03-0.94-1.65-1.26c-0.4-0.2-0.75-0.48-1.15-0.69c0.2,0.32,0.55,0.48,0.85,0.68
								c0.59,0.38,1.27,0.65,1.71,1.21c-0.67-0.18-1.26-0.55-1.85-0.9C13.57,14.15,12.98,13.57,12.27,13.19z"/>
						</g>
					</g>
				</g>
			</g>
		</g>
		<text transform="matrix(1.0001 0 0 1 8.3455 29.068)" class="st10 st11 st12">- 100% ORGANIC -</text>
	</g>
	
		<ellipse transform="matrix(1 -1.779898e-03 1.779898e-03 1 -0.0357 0.0355)" class="st13" cx="19.9" cy="20.05" rx="13.72" ry="13.72"/>
</g>
</svg>
